<svg width="28" height="28" viewBox="0 0 28 28" fill="none" xmlns="http://www.w3.org/2000/svg">
<g id="check" clip-path="url(#clip0_406_38)">
<path id="Vector" d="M13.6163 2.66418C7.3548 2.66418 2.27301 7.78366 2.27301 14.0916C2.27301 20.3995 7.3548 25.519 13.6163 25.519C19.8778 25.519 24.9596 20.3995 24.9596 14.0916C24.9596 7.78366 19.8778 2.66418 13.6163 2.66418ZM13.6163 23.2335C8.6139 23.2335 4.54167 19.1311 4.54167 14.0916C4.54167 9.0521 8.6139 4.94966 13.6163 4.94966C18.6187 4.94966 22.6909 9.0521 22.6909 14.0916C22.6909 19.1311 18.6187 23.2335 13.6163 23.2335ZM18.0175 9.85202L11.3476 16.5713L9.21509 14.423C8.77271 13.9773 8.05808 13.9773 7.61569 14.423C7.1733 14.8686 7.1733 15.5886 7.61569 16.0342L10.5536 18.9939C10.996 19.4396 11.7106 19.4396 12.153 18.9939L19.6282 11.4633C20.0706 11.0176 20.0706 10.2977 19.6282 9.85202C19.1858 9.40635 18.4599 9.40635 18.0175 9.85202Z" fill="#172A4D"/>
</g>
<defs>
<clipPath id="clip0_406_38">
<rect width="27.2239" height="27.4258" fill="white" transform="translate(0.0043335 0.378723)"/>
</clipPath>
</defs>
</svg>
